HIERARCHY
ROOT Hips
{
	OFFSET 0.00000 0.00000 0.00000
	CHANNELS 6 Xposition Yposition Zposition Zrotation Yrotation Xrotation 
	JOINT LHipJoint
	{
		OFFSET 0 0 0
		CHANNELS 3 Zrotation Yrotation Xrotation
		JOINT LeftUpLeg
		{
			OFFSET 1.38691 -1.89057 0.78360
			CHANNELS 3 Zrotation Yrotation Xrotation
			JOINT LeftLeg
			{
				OFFSET 2.59731 -7.13606 0.00000
				CHANNELS 3 Zrotation Yrotation Xrotation
				JOINT LeftFoot
				{
					OFFSET 2.70078 -7.42033 0.00000
					CHANNELS 3 Zrotation Yrotation Xrotation
					JOINT LeftToeBase
					{
						OFFSET 0.16751 -0.46024 2.68862
						CHANNELS 3 Zrotation Yrotation Xrotation
						End Site
						{
							OFFSET 0.00000 -0.00000 1.37057
						}
					}
				}
			}
		}
	}
	JOINT RHipJoint
	{
		OFFSET 0 0 0
		CHANNELS 3 Zrotation Yrotation Xrotation
		JOINT RightUpLeg
		{
			OFFSET -1.38190 -1.89056 0.78359
			CHANNELS 3 Zrotation Yrotation Xrotation
			JOINT RightLeg
			{
				OFFSET -2.57785 -7.08258 0.00000
				CHANNELS 3 Zrotation Yrotation Xrotation
				JOINT RightFoot
				{
					OFFSET -2.77908 -7.63547 0.00000
					CHANNELS 3 Zrotation Yrotation Xrotation
					JOINT RightToeBase
					{
						OFFSET -0.17921 -0.49237 2.62360
						CHANNELS 3 Zrotation Yrotation Xrotation
						End Site
						{
							OFFSET -0.00000 -0.00000 1.34085
						}
					}
				}
			}
		}
	}
	JOINT LowerBack
	{
		OFFSET 0 0 0
		CHANNELS 3 Zrotation Yrotation Xrotation
		JOINT Spine
		{
			OFFSET -0.10749 2.04110 -0.22549
			CHANNELS 3 Zrotation Yrotation Xrotation
			JOINT Spine1
			{
				OFFSET 0.01213 2.05840 0.00691
				CHANNELS 3 Zrotation Yrotation Xrotation
				JOINT Neck
				{
					OFFSET 0 0 0
					CHANNELS 3 Zrotation Yrotation Xrotation
					JOINT Neck1
					{
						OFFSET 0.06585 1.81215 0.35449
						CHANNELS 3 Zrotation Yrotation Xrotation
						JOINT Head
						{
							OFFSET -0.04315 1.87555 -0.27307
							CHANNELS 3 Zrotation Yrotation Xrotation
							End Site
							{
								OFFSET -0.01775 1.89740 -0.13294
							}
						}
					}
				}
				JOINT LeftShoulder
				{
					OFFSET 0 0 0
					CHANNELS 3 Zrotation Yrotation Xrotation
					JOINT LeftArm
					{
						OFFSET 2.98012 1.63606 0.28888
						CHANNELS 3 Zrotation Yrotation Xrotation
						JOINT LeftForeArm
						{
							OFFSET 5.59864 -0.00000 -0.00000
							CHANNELS 3 Zrotation Yrotation Xrotation
							JOINT LeftHand
							{
								OFFSET 3.59542 -0.00000 -0.00000
								CHANNELS 3 Zrotation Yrotation Xrotation
								JOINT LeftFingerBase
								{
									OFFSET 0 0 0
									CHANNELS 3 Zrotation Yrotation Xrotation
									JOINT LeftHandIndex1
									{
										OFFSET 0.57201 -0.00000 -0.00000
										CHANNELS 3 Zrotation Yrotation Xrotation
										End Site
										{
											OFFSET 0.46117 -0.00000 -0.00000
										}
									}
								}
								JOINT LThumb
								{
									OFFSET 0 0 0
									CHANNELS 3 Zrotation Yrotation Xrotation
									End Site
									{
										OFFSET 0.46821 -0.00000 0.46821
									}
								}
							}
						}
					}
				}
				JOINT RightShoulder
				{
					OFFSET 0 0 0
					CHANNELS 3 Zrotation Yrotation Xrotation
					JOINT RightArm
					{
						OFFSET -3.08694 1.53706 0.36335
						CHANNELS 3 Zrotation Yrotation Xrotation
						JOINT RightForeArm
						{
							OFFSET -5.80940 -0.00000 -0.00000
							CHANNELS 3 Zrotation Yrotation Xrotation
							JOINT RightHand
							{
								OFFSET -3.66953 -0.00000 -0.00000
								CHANNELS 3 Zrotation Yrotation Xrotation
								JOINT RightFingerBase
								{
									OFFSET 0 0 0
									CHANNELS 3 Zrotation Yrotation Xrotation
									JOINT RightHandIndex1
									{
										OFFSET -0.57843 -0.00000 -0.00000
										CHANNELS 3 Zrotation Yrotation Xrotation
										End Site
										{
											OFFSET -0.46635 -0.00000 -0.00000
										}
									}
								}
								JOINT RThumb
								{
									OFFSET 0 0 0
									CHANNELS 3 Zrotation Yrotation Xrotation
									End Site
									{
										OFFSET -0.47347 -0.00000 0.47347
									}
								}
							}
						}
					}
				}
			}
		}
	}
}
MOTION
Frames: 14
Frame Time: .0083333
0.9553 18.4826 1.6112 -0.4344 14.2217 -0.6377 0.0000 0.0000 0.0000 -23.1169 -19.6477 9.9093 1.0010 6.3666 17.8520 2.4905 -9.5146 -28.3991 0.5286 -4.6589 -12.9383 0.0000 0.0000 0.0000 9.3732 18.3349 -29.5941 -8.1924 -16.2589 53.2527 1.5624 22.9495 -0.0809 -0.0014 -0.2423 0.6657 -3.9802 -1.0512 9.8080 0.5729 -1.8183 0.0141 3.0990 -0.7829 -5.3495 -1.4822 -2.9121 -14.7756 -0.3297 -3.6358 29.9836 -0.4042 -1.8083 12.3817 -0.0000 -0.0000 0.0000 -90.9332 3.2703 37.6041 15.8705 -25.3448 -3.5904 -0.0000 0.0000 -16.8277 19.9746 13.4200 4.8219 -7.1250 0.0000 -0.0000 -6.8079 44.1186 0.1488 -0.0000 -0.0000 0.0000 90.6933 -1.3572 19.0743 -14.3489 23.2314 -2.9644 0.0000 -0.0000 -1.1293 -31.2418 -8.1900 4.9391 7.1250 -0.0000 -0.0000 -3.8258 -39.5076 -0.5187
0.9678 18.4819 1.6230 -0.4026 14.1112 -0.5532 0.0000 0.0000 0.0000 -23.1948 -19.6540 9.8979 0.9993 6.3614 17.8368 2.5016 -9.3356 -28.4665 0.5276 -4.6546 -12.9260 0.0000 0.0000 0.0000 9.2930 18.4347 -29.6716 -8.2085 -16.2705 53.3102 1.5642 22.9626 -0.0819 -0.0012 -0.2269 0.6235 -3.9994 -1.0504 9.8502 0.5636 -1.8214 0.0290 3.1015 -0.7840 -5.3571 -1.4356 -2.8897 -14.7939 -0.3483 -3.6104 29.8708 -0.4144 -1.7950 12.3382 -0.0000 -0.0000 0.0000 -90.8877 3.2782 37.5565 15.8922 -25.3743 -3.5996 -0.0000 0.0000 -16.8459 19.9900 13.4122 4.8231 -7.1250 0.0000 -0.0000 -6.7923 44.1121 0.1496 -0.0000 -0.0000 0.0000 90.6718 -1.3678 19.0450 -14.3490 23.2314 -2.9644 0.0000 -0.0000 -1.2308 -31.2062 -8.1608 4.9148 7.1250 -0.0000 -0.0000 -3.7949 -39.4705 -0.5180
0.9800 18.4812 1.6351 -0.3699 14.0075 -0.4659 0.0000 0.0000 0.0000 -23.2762 -19.6756 9.8936 0.9973 6.3553 17.8189 2.5152 -9.1721 -28.5491 0.5265 -4.6498 -12.9124 0.0000 0.0000 0.0000 9.2112 18.5236 -29.7520 -8.2239 -16.2815 53.3651 1.5676 22.9826 -0.0738 -0.0011 -0.2166 0.5951 -4.0198 -1.0526 9.8992 0.5544 -1.8288 0.0459 3.1055 -0.7873 -5.3659 -1.3814 -2.8593 -14.8151 -0.3735 -3.5734 29.7519 -0.4267 -1.7766 12.2925 -0.0000 0.0000 0.0000 -90.8390 3.2852 37.4981 15.9097 -25.3981 -3.6072 -0.0000 0.0000 -16.8594 20.0120 13.4220 4.8323 -7.1250 0.0000 -0.0000 -6.7742 44.1249 0.1470 -0.0000 0.0000 0.0000 90.6513 -1.3728 19.0252 -14.3537 23.2382 -2.9663 0.0000 -0.0000 -1.3305 -31.1590 -8.1284 4.8864 7.1250 -0.0000 -0.0000 -3.7539 -39.4290 -0.5162
0.9918 18.4805 1.6473 -0.3392 13.9112 -0.3752 0.0000 0.0000 0.0000 -23.3562 -19.7123 9.8945 0.9949 6.3479 17.7974 2.5308 -9.0253 -28.6444 0.5247 -4.6421 -12.8905 0.0000 0.0000 0.0000 9.1311 18.6045 -29.8347 -8.2383 -16.2918 53.4165 1.5721 23.0092 -0.0608 -0.0011 -0.2098 0.5765 -4.0398 -1.0569 9.9543 0.5459 -1.8392 0.0632 3.1108 -0.7919 -5.3776 -1.3254 -2.8225 -14.8323 -0.4002 -3.5272 29.6248 -0.4383 -1.7541 12.2427 0.0000 0.0000 0.0000 -90.7872 3.2954 37.4279 15.9244 -25.4181 -3.6135 -0.0000 0.0000 -16.8632 20.0289 13.4272 4.8386 -7.1250 0.0000 -0.0000 -6.7600 44.1323 0.1455 0.0000 0.0000 0.0000 90.6321 -1.3782 19.0176 -14.3654 23.2547 -2.9709 0.0000 -0.0000 -1.4277 -31.1081 -8.1059 4.8634 7.1250 -0.0000 -0.0000 -3.7097 -39.3986 -0.5129
1.0032 18.4799 1.6597 -0.3132 13.8207 -0.2816 0.0000 0.0000 0.0000 -23.4302 -19.7576 9.8973 0.9922 6.3394 17.7724 2.5476 -8.8919 -28.7465 0.5230 -4.6347 -12.8696 0.0000 0.0000 0.0000 9.0554 18.6812 -29.9182 -8.2516 -16.3012 53.4638 1.5776 23.0401 -0.0409 -0.0011 -0.2097 0.5762 -4.0566 -1.0616 10.0145 0.5381 -1.8501 0.0803 3.1151 -0.7967 -5.3924 -1.2663 -2.7819 -14.8415 -0.4259 -3.4766 29.4867 -0.4491 -1.7293 12.1871 -0.0000 -0.0000 0.0000 -90.7310 3.3114 37.3525 15.9389 -25.4377 -3.6197 -0.0000 0.0000 -16.8640 20.0430 13.4220 4.8404 -7.1250 0.0000 -0.0000 -6.7461 44.1284 0.1458 -0.0000 -0.0000 0.0000 90.6175 -1.3877 19.0191 -14.3877 23.2862 -2.9797 0.0000 -0.0000 -1.5221 -31.0511 -8.0979 4.8477 7.1250 -0.0000 -0.0000 -3.6598 -39.3844 -0.5073
1.0143 18.4794 1.6725 -0.2917 13.7336 -0.1857 0.0000 0.0000 0.0000 -23.4990 -19.8107 9.9027 0.9890 6.3298 17.7443 2.5655 -8.7650 -28.8554 0.5214 -4.6277 -12.8497 0.0000 0.0000 0.0000 8.9849 18.7561 -30.0008 -8.2636 -16.3098 53.5067 1.5838 23.0749 -0.0203 -0.0011 -0.2124 0.5836 -4.0714 -1.0667 10.0785 0.5322 -1.8612 0.0985 3.1205 -0.8017 -5.4080 -1.1982 -2.7356 -14.8542 -0.4606 -3.4176 29.3454 -0.4637 -1.7009 12.1306 -0.0000 0.0000 0.0000 -90.6708 3.3350 37.2720 15.9572 -25.4626 -3.6276 -0.0000 0.0000 -16.8667 20.0504 13.4206 4.8418 -7.1250 0.0000 -0.0000 -6.7391 44.1279 0.1458 -0.0000 0.0000 0.0000 90.6019 -1.4013 19.0393 -14.4222 23.3351 -2.9933 0.0000 -0.0000 -1.6132 -30.9938 -8.1075 4.8425 7.1250 -0.0000 -0.0000 -3.6095 -39.3907 -0.4997
1.0250 18.4790 1.6858 -0.2764 13.6474 -0.0867 0.0000 0.0000 0.0000 -23.5587 -19.8686 9.9074 0.9856 6.3191 17.7133 2.5841 -8.6409 -28.9684 0.5199 -4.6212 -12.8312 0.0000 0.0000 0.0000 8.9214 18.8333 -30.0845 -8.2747 -16.3176 53.5463 1.5902 23.1114 0.0006 -0.0012 -0.2194 0.6027 -4.0851 -1.0708 10.1431 0.5299 -1.8706 0.1193 3.1288 -0.8059 -5.4213 -1.1262 -2.6869 -14.8649 -0.5005 -3.3547 29.1953 -0.4801 -1.6710 12.0703 0.0000 -0.0000 0.0000 -90.6079 3.3656 37.1901 15.9819 -25.4961 -3.6382 -0.0000 0.0000 -16.8770 20.0618 13.4133 4.8423 -7.1250 0.0000 -0.0000 -6.7273 44.1215 0.1466 0.0000 -0.0000 0.0000 90.5867 -1.4196 19.0797 -14.4704 23.4032 -3.0124 0.0000 -0.0000 -1.7136 -30.9373 -8.1328 4.8466 7.1250 -0.0000 -0.0000 -3.5597 -39.4152 -0.4906
1.0353 18.4789 1.6996 -0.2645 13.5607 0.0175 0.0000 0.0000 0.0000 -23.6124 -19.9291 9.9088 0.9819 6.3076 17.6795 2.6031 -8.5174 -29.0842 0.5191 -4.6175 -12.8208 0.0000 0.0000 0.0000 8.8609 18.9116 -30.1719 -8.2852 -16.3251 53.5835 1.5967 23.1488 0.0200 -0.0012 -0.2260 0.6211 -4.0987 -1.0732 10.2058 0.5293 -1.8776 0.1417 3.1384 -0.8090 -5.4320 -1.0611 -2.6386 -14.8730 -0.5372 -3.2915 29.0389 -0.4940 -1.6414 12.0074 -0.0000 0.0000 0.0000 -90.5423 3.4050 37.1043 16.0143 -25.5400 -3.6521 -0.0000 0.0000 -16.8948 20.0690 13.4050 4.8412 -7.1250 0.0000 -0.0000 -6.7192 44.1136 0.1477 -0.0000 0.0000 0.0000 90.5721 -1.4448 19.1424 -14.5319 23.4899 -3.0369 0.0000 -0.0000 -1.8230 -30.8807 -8.1850 4.8665 7.1250 -0.0000 -0.0000 -3.5093 -39.4706 -0.4789
1.0454 18.4788 1.7140 -0.2538 13.4709 0.1272 0.0000 0.0000 0.0000 -23.6624 -19.9913 9.9071 0.9780 6.2953 17.6437 2.6225 -8.3950 -29.2026 0.5182 -4.6136 -12.8096 0.0000 0.0000 0.0000 8.8015 18.9910 -30.2645 -8.2954 -16.3323 53.6199 1.6034 23.1869 0.0400 -0.0013 -0.2319 0.6373 -4.1132 -1.0726 10.2659 0.5289 -1.8806 0.1670 3.1479 -0.8103 -5.4384 -0.9887 -2.5896 -14.8917 -0.5824 -3.2266 28.8842 -0.5122 -1.6112 11.9474 -0.0000 -0.0000 0.0000 -90.4703 3.4528 37.0255 16.0573 -25.5982 -3.6707 -0.0000 0.0000 -16.9326 20.0893 13.4071 4.8472 -7.1250 0.0000 -0.0000 -6.7011 44.1181 0.1466 -0.0000 -0.0000 0.0000 90.5587 -1.4738 19.2258 -14.6065 23.5950 -3.0667 0.0000 -0.0000 -1.9465 -30.8151 -8.2692 4.9032 7.1250 -0.0000 -0.0000 -3.4502 -39.5622 -0.4630
1.0550 18.4789 1.7288 -0.2462 13.3805 0.2428 0.0000 0.0000 0.0000 -23.7040 -20.0533 9.8986 0.9738 6.2823 17.6057 2.6414 -8.2759 -29.3178 0.5173 -4.6099 -12.7991 0.0000 0.0000 0.0000 8.7451 19.0693 -30.3649 -8.3057 -16.3395 53.6563 1.6098 23.2246 0.0575 -0.0013 -0.2353 0.6466 -4.1257 -1.0697 10.3266 0.5281 -1.8802 0.1932 3.1556 -0.8100 -5.4446 -0.9276 -2.5453 -14.9081 -0.6189 -3.1683 28.7262 -0.5261 -1.5841 11.8863 -0.0000 -0.0000 0.0000 -90.3906 3.5112 36.9545 16.1118 -25.6720 -3.6943 -0.0000 0.0000 -16.9898 20.1081 13.4050 4.8514 -7.1250 0.0000 -0.0000 -6.6837 44.1181 0.1462 -0.0000 -0.0000 0.0000 90.5494 -1.5082 19.3230 -14.6903 23.7129 -3.1003 0.0000 -0.0000 -2.0791 -30.7430 -8.3587 4.9416 7.1250 -0.0000 -0.0000 -3.3853 -39.6593 -0.4462
1.0643 18.4792 1.7442 -0.2362 13.2884 0.3659 0.0000 0.0000 0.0000 -23.7443 -20.1146 9.8836 0.9694 6.2686 17.5657 2.6598 -8.1588 -29.4311 0.5167 -4.6073 -12.7917 0.0000 0.0000 0.0000 8.6849 19.1449 -30.4745 -8.3161 -16.3469 53.6934 1.6165 23.2627 0.0773 -0.0013 -0.2351 0.6459 -4.1406 -1.0650 10.3847 0.5257 -1.8777 0.2220 3.1623 -0.8087 -5.4467 -0.8744 -2.5044 -14.9356 -0.6521 -3.1134 28.5721 -0.5382 -1.5589 11.8296 0.0000 -0.0000 0.0000 -90.3048 3.5767 36.8889 16.1780 -25.7614 -3.7230 -0.0000 0.0000 -17.0681 20.1441 13.4306 4.8699 -7.1250 0.0000 -0.0000 -6.6560 44.1492 0.1404 0.0000 -0.0000 0.0000 90.5418 -1.5441 19.4368 -14.7820 23.8415 -3.1373 0.0000 -0.0000 -2.2225 -30.6493 -8.4802 4.9940 7.1250 -0.0000 -0.0000 -3.3003 -39.7911 -0.4243
1.0731 18.4795 1.7599 -0.2260 13.1977 0.4976 0.0000 0.0000 0.0000 -23.7779 -20.1763 9.8585 0.9649 6.2544 17.5244 2.6776 -8.0495 -29.5398 0.5159 -4.6036 -12.7814 0.0000 0.0000 0.0000 8.6233 19.2173 -30.5953 -8.3267 -16.3543 53.7310 1.6232 23.3004 0.0990 -0.0013 -0.2333 0.6410 -4.1574 -1.0593 10.4444 0.5236 -1.8741 0.2512 3.1704 -0.8068 -5.4493 -0.8357 -2.4687 -14.9697 -0.6778 -3.0646 28.4193 -0.5460 -1.5370 11.7754 -0.0000 0.0000 0.0000 -90.2130 3.6520 36.8324 16.2581 -25.8693 -3.7579 -0.0000 0.0000 -17.1711 20.1707 13.4458 4.8822 -7.1250 0.0000 -0.0000 -6.6349 44.1681 0.1369 -0.0000 0.0000 0.0000 90.5347 -1.5795 19.5625 -14.8779 23.9758 -3.1762 0.0000 -0.0000 -2.3754 -30.5426 -8.6185 5.0530 7.1250 -0.0000 -0.0000 -3.2032 -39.9410 -0.3999
1.0813 18.4800 1.7758 -0.2124 13.1122 0.6377 0.0000 0.0000 0.0000 -23.8084 -20.2390 9.8242 0.9603 6.2398 17.4818 2.6939 -7.9472 -29.6405 0.5151 -4.6003 -12.7718 0.0000 0.0000 0.0000 8.5566 19.2840 -30.7260 -8.3372 -16.3618 53.7684 1.6300 23.3372 0.1242 -0.0013 -0.2320 0.6375 -4.1776 -1.0530 10.5087 0.5191 -1.8706 0.2789 3.1781 -0.8048 -5.4560 -0.8048 -2.4386 -15.0115 -0.6996 -3.0227 28.2722 -0.5523 -1.5184 11.7254 0.0000 -0.0000 0.0000 -90.1111 3.7401 36.7908 16.3522 -25.9959 -3.7990 -0.0000 0.0000 -17.3003 20.1967 13.4763 4.8999 -7.1250 0.0000 -0.0000 -6.6174 44.2030 0.1308 0.0000 -0.0000 0.0000 90.5309 -1.6179 19.6963 -14.9791 24.1170 -3.2174 0.0000 -0.0000 -2.5399 -30.4198 -8.7791 5.1209 7.1250 -0.0000 -0.0000 -3.0907 -40.1147 -0.3726
1.0888 18.4806 1.7919 -0.2006 13.0324 0.7864 0.0000 0.0000 0.0000 -23.8296 -20.3060 9.7791 0.9556 6.2250 17.4385 2.7096 -7.8525 -29.7369 0.5141 -4.5959 -12.7594 0.0000 0.0000 0.0000 8.4904 19.3480 -30.8669 -8.3474 -16.3689 53.8047 1.6367 23.3737 0.1484 -0.0013 -0.2299 0.6317 -4.1977 -1.0460 10.5763 0.5147 -1.8664 0.3040 3.1858 -0.8023 -5.4674 -0.7909 -2.4173 -15.0488 -0.7108 -2.9919 28.1231 -0.5532 -1.5053 11.6745 -0.0000 -0.0000 0.0000 -89.9989 3.8413 36.7665 16.4602 -26.1407 -3.8465 -0.0000 0.0000 -17.4534 20.2203 13.5069 4.9170 -7.1250 0.0000 -0.0000 -6.6019 44.2380 0.1247 -0.0000 -0.0000 0.0000 90.5296 -1.6605 19.8351 -15.0833 24.2620 -3.2601 0.0000 -0.0000 -2.7101 -30.2924 -8.9465 5.1908 7.1250 -0.0000 -0.0000 -2.9732 -40.2951 -0.3452
